<svg width="740" height="1324" viewBox="0 0 740 1324" fill="none" xmlns="http://www.w3.org/2000/svg">
<path fill-rule="evenodd" clip-rule="evenodd" d="M0 2.75744V5.51674H32.089H64.1799L63.9936 20.8604L63.8074 36.2023L31.9046 36.3829L0 36.5616V38.969V41.3746H32.8601H65.7183L67.3499 39.6151C68.8678 37.9785 68.9814 37.3064 68.9814 29.9613V22.0669H100.368H131.755V57.2359V92.4049H100.368H68.9814V82.4047V72.4065H35.1808H1.38011V74.8195V77.2324H32.767H64.152V93.0938V108.955H32.767H1.38011V111.368V113.781H34.4916C67.1413 113.781 67.6013 113.762 67.6013 112.401C67.6013 111.644 67.9123 111.024 68.2923 111.024C68.7058 111.024 68.9814 108.264 68.9814 104.127V97.2308H101.402H133.824V95.1623C133.824 93.5536 134.13 93.0938 135.204 93.0938C136.545 93.0938 136.583 92.6339 136.583 76.1991V59.3044H167.28H197.976V138.605V217.908H167.28H136.583V200.669C136.583 183.888 136.547 183.43 135.204 183.43C134.284 183.43 133.824 182.97 133.824 182.05C133.824 180.691 133.364 180.671 101.402 180.671H68.9814V172.397V164.121H34.4916H0V166.88V169.637H32.089H64.1799L63.9936 184.981L63.8074 200.325L31.9046 200.503L0 200.682V203.09V205.495H32.8601H65.7183L67.3499 203.736C68.8678 202.099 68.9814 201.427 68.9814 194.082V186.188H100.368H131.755V221.356V256.525H100.368H68.9814V246.525V236.527H35.1808H1.38011V238.94V241.355H32.767H64.152V257.214V273.076H32.767H1.38011V275.489V277.902H34.4916C67.1413 277.902 67.6013 277.883 67.6013 276.524C67.6013 275.764 67.9123 275.144 68.2923 275.144C68.7039 275.144 68.9814 272.5 68.9814 268.592V262.042L94.3319 261.916C108.275 261.847 120.614 261.867 121.752 261.96C128.494 262.521 133.824 261.312 133.824 259.225C133.824 257.674 134.139 257.214 135.204 257.214C136.545 257.214 136.583 256.754 136.583 240.268V223.321L170.039 223.546L203.497 223.769L203.495 182.568V141.365H234.193H264.888V298.868V456.372L234.71 456.027C218.11 455.837 204.491 455.634 204.447 455.577C204.4 455.517 204.191 438.19 203.985 417.073L203.607 378.676L202.042 376.561L200.476 374.444H168.875H137.274V357.204C137.274 340.781 137.212 339.965 135.974 339.965C135.255 339.965 134.513 339.349 134.314 338.586C133.96 337.23 133.374 337.206 101.812 337.206H69.6705V328.932V320.656H35.1808H0.689125V323.071V325.484H32.4205H64.152V341.343V357.204H32.4205H0.689125V359.617V362.03H33.8007C66.4521 362.03 66.9122 362.012 66.9122 360.653C66.9122 359.733 67.3722 359.273 68.2923 359.273C69.5979 359.273 69.6705 358.813 69.6705 350.652V342.034H100.713H131.755V377.547V413.061H100.731H69.7078L69.5178 402.889L69.326 392.718L45.527 392.604C32.4392 392.541 17.1499 392.666 11.555 392.882L1.38011 393.273V395.581V397.89H32.767H64.152V413.405V428.92H32.767H1.38011V431.335V433.748H34.4116H67.443L68.5568 432.048C69.3744 430.801 69.6705 428.693 69.6705 424.118V417.887H102.093H134.513V415.865C134.513 414.448 134.927 413.712 135.894 413.405C137.223 412.983 137.274 412.363 137.274 396.12V379.271H167.97H198.667V458.917V538.564H167.97H137.274V521.325C137.274 504.289 137.257 504.086 135.828 504.086C134.964 504.086 134.24 503.531 134.024 502.706C133.67 501.353 133.083 501.327 101.666 501.327H69.6705V493.052V484.776H35.1808H0.689125V487.191V489.604H32.4205H64.152V505.464V521.325H32.4205H0.689125V523.738V526.153H33.8007C66.4521 526.153 66.9122 526.132 66.9122 524.773C66.9122 523.853 67.3722 523.394 68.2923 523.394C69.5979 523.394 69.6705 522.934 69.6705 514.773V506.154H100.713H131.755V541.668V577.181H100.713H69.6705V567.256C69.6705 558.451 69.5346 557.28 68.4674 556.87C67.1562 556.366 26.1961 556.485 10.8789 557.034L1.38011 557.377V559.693V562.011H32.767H64.152V577.526V593.043H32.767H1.38011V595.8V598.557H34.4916C63.7645 598.557 67.6013 598.436 67.6013 597.502C67.6013 596.921 68.0669 596.267 68.6369 596.049C69.4601 595.733 69.6705 594.258 69.6705 588.831V582.009H102.093H134.513V579.985C134.513 578.57 134.927 577.833 135.894 577.526C137.223 577.105 137.274 576.483 137.274 560.244V543.398L170.385 543.567L203.495 543.736L203.592 540.288C203.83 531.623 204.041 509.889 204.11 486.651L204.186 461.285L229.881 461.332C268.12 461.401 267.649 461.41 267.649 460.592C267.649 460.187 268.114 459.388 268.682 458.82C269.591 457.911 269.718 448.174 269.718 379.566V301.348H300.066H330.413L330.415 404.269C330.415 460.874 330.618 622.35 330.866 763.104L331.313 1019.02L301.032 1018.7C284.378 1018.52 270.713 1018.33 270.664 1018.27C270.616 1018.22 270.424 983.118 270.238 940.277L269.899 862.383L268.429 861.408C267.621 860.871 266.958 860.004 266.958 859.481C266.958 858.688 261.724 858.531 235.226 858.531H203.495V819.16C203.495 780.37 203.474 779.785 202.117 779.429C201.353 779.23 200.737 778.489 200.737 777.77C200.737 776.515 199.613 776.471 168.661 776.471H136.583V759.232C136.583 742.451 136.547 741.993 135.204 741.993C134.284 741.993 133.824 741.533 133.824 740.613C133.824 739.254 133.364 739.233 101.424 739.233H69.0261L68.8306 731.13L68.6369 723.028L34.3184 722.849L0 722.67V725.435V728.2H32.076H64.152V743.715V759.232H32.076H0V761.989V764.748H33.4561C66.4521 764.748 66.9122 764.73 66.9122 763.369C66.9122 762.449 67.3722 761.989 68.2923 761.989C69.5979 761.989 69.6705 761.529 69.6705 753.37V744.75H100.368H131.064V779.919V815.088H100.024H68.9814V805.088V795.09H34.7934H0.607175L0.821363 797.676L1.03555 800.262L32.6068 800.441L64.1799 800.619L63.9936 815.956L63.8074 831.292L32.2492 831.472L0.689125 831.651V834.059V836.464H34.1452C63.4237 836.464 67.6013 836.336 67.6013 835.431C67.6013 834.861 67.9123 834.396 68.2923 834.396C68.7058 834.396 68.9814 831.638 68.9814 827.499V820.605H101.402H133.824V818.471C133.824 816.918 134.199 816.24 135.204 815.976C136.762 815.57 136.67 816.942 136.585 795.252L136.531 781.967L167.254 782.002L197.976 782.036V861.315V940.591H167.28H136.583V923.352C136.583 906.573 136.547 906.113 135.204 906.113C134.284 906.113 133.824 905.653 133.824 904.733C133.824 903.374 133.364 903.354 101.769 903.354H69.7152L69.5215 895.251L69.326 887.148L34.663 886.969L0 886.791V889.55V892.307L31.9046 892.486L63.8074 892.665L63.9936 908.009L64.1799 923.352H32.089H0V926.11V928.869H33.4561C66.4521 928.869 66.9122 928.85 66.9122 927.489C66.9122 926.57 67.3722 926.11 68.2923 926.11C69.5979 926.11 69.6705 925.65 69.6705 917.491V908.871H100.368H131.064V944.039V979.209H100.024H68.9814V969.21V959.21H34.7934H0.607175L0.821363 961.796L1.03555 964.382L32.5155 964.561L63.9974 964.742L63.9024 980.078L63.8074 995.414L35.1808 995.569C19.4352 995.653 5.23363 995.731 3.6207 995.74C0.733825 995.759 0.689125 995.794 0.689125 998.172V1000.58H34.1452C63.4237 1000.58 67.6013 1000.46 67.6013 999.551C67.6013 998.982 67.9123 998.516 68.2923 998.516C68.7058 998.516 68.9814 995.759 68.9814 991.622V984.725H101.402H133.824V982.591C133.824 981.039 134.199 980.361 135.204 980.098C136.536 979.75 136.583 979.156 136.583 962.887V946.035L170.039 946.244L203.497 946.453L203.495 905.251V864.048H234.142H264.79L264.667 1021.45L264.544 1178.84L234.364 1178.99L204.186 1179.13V1139.79C204.186 1101.03 204.165 1100.44 202.806 1100.09C202.042 1099.89 201.426 1099.14 201.426 1098.43C201.426 1097.17 200.304 1097.13 169.35 1097.13H137.274V1079.89C137.274 1063.11 137.236 1062.65 135.894 1062.65C134.974 1062.65 134.513 1062.19 134.513 1061.27C134.513 1059.91 134.053 1059.89 102.093 1059.89H69.6705V1051.61V1043.34H35.1808H0.689125V1046.1V1048.86H32.4205H64.152V1064.37V1079.89H32.4205H0.689125V1082.65V1085.4H33.8007C66.4521 1085.4 66.9122 1085.39 66.9122 1084.02C66.9122 1083.1 67.3722 1082.65 68.2923 1082.65C69.5979 1082.65 69.6705 1082.19 69.6705 1074.03V1065.41H100.713H131.755V1100.57V1135.74H100.713H69.6705V1125.75C69.6705 1118.23 69.4582 1115.74 68.8082 1115.71C67.9794 1115.68 24.0765 1115.69 8.79473 1115.73L1.38011 1115.75V1118.16V1120.57H32.767H64.152V1136.09V1151.61H32.767H1.38011V1154.36V1157.12H34.8362C67.8323 1157.12 68.2923 1157.1 68.2923 1155.74C68.2923 1154.98 68.6015 1154.36 68.9814 1154.36C69.393 1154.36 69.6705 1151.72 69.6705 1147.81V1141.26H102.093H134.513V1138.85C134.513 1136.89 134.776 1136.43 135.894 1136.43C137.236 1136.43 137.274 1135.97 137.274 1119.54V1102.64H167.932H198.591L198.457 1181.77L198.321 1260.9L167.798 1261.05L137.274 1261.19V1243.98C137.274 1227.23 137.236 1226.77 135.894 1226.77C134.974 1226.77 134.513 1226.31 134.513 1225.39C134.513 1224.03 134.053 1224.01 102.093 1224.01H69.6705V1215.74V1207.46H35.1808H0.689125V1210.22V1212.98H32.4205H64.152V1228.49V1244.01H32.4205H0.689125V1246.77V1249.52H33.8007C66.4521 1249.52 66.9122 1249.51 66.9122 1248.15C66.9122 1247.23 67.3722 1246.77 68.2923 1246.77C69.5979 1246.77 69.6705 1246.31 69.6705 1238.15V1229.53H100.713H131.755V1264.7V1299.86H100.713H69.6705V1289.87C69.6705 1280.81 69.5569 1279.86 68.4636 1279.84C67.4318 1279.81 27.4905 1279.82 7.76104 1279.86L1.38011 1279.87V1282.28V1284.69H32.767H64.152V1300.21V1315.73H32.767H1.38011V1318.48V1321.24H34.8362C67.8323 1321.24 68.2923 1321.22 68.2923 1319.86C68.2923 1319.1 68.6015 1318.48 68.9814 1318.48C69.393 1318.48 69.6705 1315.84 69.6705 1311.93V1305.38H102.093H134.513V1302.97C134.513 1301.01 134.776 1300.56 135.894 1300.56C137.236 1300.56 137.274 1300.1 137.274 1283.61V1266.67L170.557 1266.82L203.839 1266.96L204.018 1225.83L204.195 1184.7H235.923C267.189 1184.7 267.649 1184.69 267.649 1183.33C267.649 1182.57 268.081 1181.95 268.61 1181.95C270.368 1181.95 270.407 1180.18 270.407 1101.9V1024.03H302.138C329.884 1024.03 333.87 1023.9 333.87 1023C333.87 1022.43 334.33 1021.96 334.892 1021.96C336.69 1021.96 336.693 1021.58 336.489 842.405L336.286 665.952L369.604 666.309C387.929 666.507 403.019 666.78 403.14 666.92C403.259 667.058 403.54 747.694 403.762 846.109C404.043 969.611 404.392 1025.12 404.891 1025.28C405.287 1025.42 405.612 1026.12 405.612 1026.85C405.612 1028.13 406.535 1028.17 437.688 1028.17H469.763V1106.5C469.763 1184.25 469.775 1184.84 471.144 1185.19C471.907 1185.39 472.524 1186.14 472.524 1186.85C472.524 1188.11 473.637 1188.15 504.255 1188.15H535.987V1227.8C535.987 1266.99 536.001 1267.45 537.367 1267.45C538.285 1267.45 538.745 1267.91 538.745 1268.83C538.745 1270.19 539.205 1270.21 570.821 1270.21H602.899V1287.45C602.899 1304.23 602.934 1304.69 604.277 1304.69C605.197 1304.69 605.657 1305.15 605.657 1306.07C605.657 1307.43 606.117 1307.45 638.079 1307.45H670.5V1315.73V1324H704.992H739.481V1321.24V1318.48H707.75H676.019V1302.97V1287.45H707.75H739.481V1284.69V1281.94H706.37C673.718 1281.94 673.258 1281.95 673.258 1283.31C673.258 1284.23 672.8 1284.69 671.88 1284.69C670.575 1284.69 670.5 1285.15 670.5 1293.31V1301.93H639.458H608.417V1266.76V1231.59H639.458H670.5V1241.6C670.5 1250.65 670.614 1251.6 671.707 1251.62C672.703 1251.64 713.537 1251.63 733.445 1251.6L738.792 1251.59V1249.18V1246.77H707.405H676.019V1231.25V1215.74H707.405H738.792V1212.98V1210.22H705.336C672.34 1210.22 671.88 1210.24 671.88 1211.6C671.88 1212.36 671.569 1212.98 671.189 1212.98C670.778 1212.98 670.5 1215.62 670.5 1219.53V1226.08H638.079H605.657V1228.49C605.657 1230.45 605.394 1230.91 604.277 1230.91C602.936 1230.91 602.899 1231.37 602.899 1247.8V1264.7H572.201H541.505V1185.39V1106.09H572.201H602.899V1123.33C602.899 1140.11 602.934 1140.57 604.277 1140.57C605.197 1140.57 605.657 1141.03 605.657 1141.95C605.657 1143.31 606.117 1143.33 638.079 1143.33H670.5V1151.61V1159.88H704.992H739.481V1157.12V1154.36H707.75H676.019V1138.85V1123.33H707.75H739.481V1120.57V1117.81H706.37C673.718 1117.81 673.258 1117.83 673.258 1119.19C673.258 1120.11 672.8 1120.57 671.88 1120.57C670.575 1120.57 670.5 1121.03 670.5 1129.19V1137.81H639.458H608.417V1102.64V1067.47H639.458H670.5V1077.47V1087.47H704.645H738.792V1085.06V1082.65H707.405H676.019V1066.79V1050.92H707.405H738.792V1048.51V1046.1H705.336C672.34 1046.1 671.88 1046.12 671.88 1047.48C671.88 1048.24 671.569 1048.86 671.189 1048.86C670.778 1048.86 670.5 1051.5 670.5 1055.41V1061.96H638.079H605.657V1064.37C605.657 1066.33 605.394 1066.79 604.277 1066.79C602.936 1066.79 602.899 1067.25 602.899 1083.73V1100.68L569.443 1100.46L535.985 1100.23L535.987 1141.43V1182.64H505.633H475.282V1025.11V867.587L501.324 867.844C515.644 867.984 529.31 868.12 531.688 868.142L536.013 868.185L535.987 900.423C535.972 918.154 535.966 935.871 535.974 939.794C535.985 946.341 536.1 946.957 537.367 947.289C538.128 947.488 538.745 948.229 538.745 948.947C538.745 950.201 539.861 950.245 570.476 950.245H602.208V967.14C602.208 983.828 602.226 984.036 603.653 984.036C604.517 984.036 605.242 984.589 605.458 985.414C605.812 986.77 606.398 986.794 637.815 986.794H669.811V995.068C669.811 1003.17 669.843 1003.34 671.362 1003.4C673.044 1003.46 724.488 1003.44 733.79 1003.38L739.481 1003.34V1000.93C739.481 998.611 739.381 998.514 736.894 998.464C734.136 998.408 694.228 997.986 682.383 997.887L675.298 997.827L675.356 982.657L675.415 967.486H707.448H739.481V964.727V961.969H706.025C673.029 961.969 672.569 961.988 672.569 963.347C672.569 964.267 672.109 964.727 671.189 964.727C669.887 964.727 669.811 965.187 669.811 973.003V981.277H638.815H607.819L607.946 946.281L608.071 911.284H639.113H670.155L670.299 919.904C670.377 924.644 670.455 929.223 670.472 930.075L670.5 931.626H704.301H738.101V928.869V926.11H706.714H675.329V910.595V895.08H706.714H738.101V892.32V889.563H704.992C672.34 889.563 671.88 889.582 671.88 890.943C671.88 891.7 671.58 892.32 671.215 892.32C670.846 892.32 670.461 895.327 670.353 899.044L670.155 905.767L640.838 905.923C624.714 906.007 610.047 906.085 608.244 906.095C605.096 906.111 604.968 906.191 604.968 908.102C604.968 909.509 604.566 910.194 603.588 910.449C602.256 910.798 602.208 911.39 602.208 927.771V944.728H571.856H541.505V865.083V785.436H571.856H602.208V802.675V819.914H603.932C605.197 819.914 605.657 820.283 605.657 821.294C605.657 822.653 606.117 822.673 637.733 822.673H669.811V830.947C669.811 839.065 669.839 839.223 671.362 839.236C674.251 839.259 730.135 839.268 734.866 839.246L739.565 839.223L739.351 836.637L739.137 834.051L707.232 833.872L675.329 833.692V818.529V803.364H707.405H739.481V800.606V797.849H706.025C673.029 797.849 672.569 797.867 672.569 799.227C672.569 800.146 672.109 800.606 671.189 800.606C669.887 800.606 669.811 801.066 669.811 808.88V817.156H638.815H607.819L607.946 782.161L608.071 747.163H639.113H670.155L670.299 755.784C670.377 760.524 670.455 765.102 670.472 765.955L670.5 767.506H704.301H738.101V764.748V761.989H706.714H675.329V746.474V730.959H706.714H738.101V728.2V725.442H704.992C672.34 725.442 671.88 725.461 671.88 726.82C671.88 727.58 671.58 728.2 671.215 728.2C670.846 728.2 670.461 731.207 670.353 734.923L670.155 741.646L640.838 741.795C624.714 741.877 610.047 741.953 608.244 741.967C605.098 741.991 604.968 742.071 604.968 743.979C604.968 745.389 604.566 746.074 603.588 746.329C602.256 746.677 602.208 747.269 602.208 763.352V780.014L569.096 779.794L535.985 779.575L535.977 782.676C535.974 784.384 535.895 803.003 535.806 824.053L535.642 862.324L509.774 862.447C467.543 862.646 471.833 862.46 471.833 864.089C471.833 864.869 471.555 865.336 471.216 865.128C469.862 864.29 469.763 869.669 469.763 944.786V1022.65H439.766H409.769L409.588 976.278C409.487 950.772 409.329 845.187 409.236 741.646C409.143 638.106 408.863 497.612 408.614 429.438L408.161 305.485H438.973H469.784L469.763 370.133C469.752 405.691 469.749 440.94 469.754 448.466C469.763 461.566 469.823 462.166 471.144 462.51C471.907 462.709 472.524 463.451 472.524 464.169C472.524 465.422 473.637 465.469 504.255 465.469H535.987V504.028C535.987 542.694 536.074 544.772 537.704 544.772C538.188 544.772 538.747 545.392 538.946 546.149C539.3 547.505 539.887 547.529 571.102 547.529H602.899V564.768C602.899 581.194 602.96 582.009 604.197 582.009C604.916 582.009 605.657 582.624 605.856 583.387C606.212 584.742 606.799 584.767 638.359 584.767H670.5V593.043V601.317H704.992H739.481V598.557V595.8H707.75H676.019V580.285V564.768H707.75H739.481V562.011V559.251H706.37C673.718 559.251 673.258 559.272 673.258 560.631C673.258 561.551 672.8 562.011 671.88 562.011C670.575 562.011 670.5 562.471 670.5 570.629V579.25H639.458H608.417V544.081V508.912H639.458H670.5V518.912V528.91H704.645H738.792V526.153V523.394H707.405H676.019V507.879V492.362H707.405H738.792V489.949V487.536H705.336C676.058 487.536 671.88 487.664 671.88 488.569C671.88 489.139 671.569 489.604 671.189 489.604C670.776 489.604 670.5 492.362 670.5 496.501V503.395H638.079H605.657V505.81C605.657 507.763 605.394 508.223 604.277 508.223C602.936 508.223 602.899 508.683 602.899 525.118V542.012H572.201H541.505V462.711V383.408H572.201H602.899V400.648C602.899 417.071 602.96 417.887 604.197 417.887C604.916 417.887 605.657 418.503 605.856 419.266C606.212 420.622 606.799 420.646 638.359 420.646H670.5V428.92V437.196H704.992H739.481V434.437V431.679H707.75H676.019V416.164V400.648H707.75H739.481V397.89V395.131H706.37C673.718 395.131 673.258 395.151 673.258 396.51C673.258 397.43 672.8 397.89 671.88 397.89C670.575 397.89 670.5 398.35 670.5 406.509V415.129H639.458H608.417V379.96V344.791H639.458H670.5V354.791V364.79H704.645H738.792V362.03V359.273H707.405H676.019V343.758V328.241H707.405H738.792V325.484V322.724H706.428C673.601 322.724 671.88 322.814 671.88 324.523C671.88 325.052 671.569 325.484 671.189 325.484C670.776 325.484 670.5 328.241 670.5 332.38V339.275H638.079H605.657V341.689C605.657 343.643 605.394 344.102 604.277 344.102C602.936 344.102 602.899 344.562 602.899 361.038V377.976L569.443 377.761L535.987 377.547V418.749V459.952H505.633H475.282V302.382V144.813H505.633H535.987V184.463C535.987 223.654 536.001 224.114 537.367 224.114C538.285 224.114 538.745 224.574 538.745 225.494C538.745 226.853 539.205 226.873 570.476 226.873H602.208V244.112V261.351H603.932C605.197 261.351 605.657 261.72 605.657 262.731C605.657 264.09 606.117 264.111 637.733 264.111H669.811V272.385V280.661H704.645H739.481V277.902V275.144H707.435H675.389L675.532 259.8L675.674 244.457L704.992 244.31C721.115 244.228 735.49 244.15 736.937 244.136C739.548 244.112 739.563 244.096 739.351 241.526L739.137 238.94L706.135 238.761C674.11 238.588 673.124 238.622 672.787 239.904C672.597 240.632 671.85 241.381 671.126 241.571C669.923 241.885 669.811 242.628 669.811 250.255V258.594H638.769H607.726V223.425V188.256H639.113H670.5V198.254C670.5 205.773 670.714 208.264 671.362 208.295C671.837 208.318 684.176 208.318 698.782 208.295C713.39 208.273 728.211 208.254 731.72 208.254H738.101V205.841V203.427H706.714H675.329V187.912V172.397H706.714H738.101V169.637V166.88H704.992C672.34 166.88 671.88 166.898 671.88 168.258C671.88 169.017 671.569 169.637 671.189 169.637C670.778 169.637 670.5 172.279 670.5 176.182V182.726L637.906 182.905L605.312 183.084L605.102 185.255C604.961 186.716 604.452 187.541 603.549 187.776C602.267 188.111 602.208 188.867 602.208 204.741V221.356H571.856H541.505V142.054V62.7526H571.856H602.208V79.9917V97.2308H603.932C605.197 97.2308 605.657 97.5995 605.657 98.6105C605.657 99.9697 606.117 99.9901 637.733 99.9901H669.811V108.264V116.54H704.645H739.481V113.781V111.024H707.405H675.329V95.5067V79.9917H707.405H739.481V77.2324V74.475H706.307C674.246 74.475 673.119 74.5197 672.785 75.7895C672.597 76.5138 671.85 77.2604 671.126 77.4503C669.923 77.7649 669.811 78.5078 669.811 86.1341V94.4734H638.769H607.726V59.3044V24.1355H639.113H670.5V34.1338C670.5 41.6576 670.714 44.1413 671.362 44.1655C671.837 44.1823 684.176 44.1842 698.782 44.1693C713.39 44.1544 728.211 44.1413 731.72 44.1376L738.101 44.1339V41.719C738.101 39.3433 738.057 39.306 735.17 39.2818C733.557 39.2669 719.512 39.1906 703.956 39.1087L675.674 38.9616L675.532 23.6179L675.389 8.27417H706.746H738.101V5.51674V2.75744H704.992C672.34 2.75744 671.88 2.77792 671.88 4.13709C671.88 4.89673 671.569 5.51674 671.189 5.51674C670.778 5.51674 670.5 8.15874 670.5 12.0612V18.6057L637.906 18.7845L605.312 18.9632L605.102 21.1341C604.961 22.5957 604.452 23.4205 603.549 23.6551C602.267 23.9903 602.208 24.7462 602.208 40.6727V57.3402L569.096 57.1149L535.985 56.8915L535.987 98.0929V139.296H503.911C474.641 139.296 471.833 139.395 471.833 140.426C471.833 141.048 471.365 141.901 470.792 142.324C469.873 142.998 469.73 152.469 469.585 221.356L469.419 299.624L443.551 299.754C429.323 299.825 414.967 299.903 411.648 299.926C406.602 299.961 405.612 300.149 405.612 301.067C405.612 301.672 404.965 302.335 404.177 302.542L402.743 302.916L403.241 482.034L403.74 661.152L370.703 660.833C352.532 660.658 337.28 660.396 336.809 660.249C336.131 660.037 335.95 622.749 335.937 480.837C335.921 308.503 335.842 298.589 334.479 298.589C334.144 298.589 333.87 297.969 333.87 297.211C333.87 295.852 333.41 295.831 302.138 295.831H270.407V218.31C270.407 140.372 270.368 138.605 268.61 138.605C268.081 138.605 267.649 137.985 267.649 137.228C267.649 135.868 267.189 135.848 235.571 135.848H203.495V96.4768C203.495 57.6865 203.474 57.1018 202.117 56.7462C201.353 56.5451 200.737 55.8041 200.737 55.0854C200.737 53.8324 199.613 53.7877 168.661 53.7877H136.583V36.5486C136.583 19.7675 136.547 19.3076 135.204 19.3076C134.284 19.3076 133.824 18.8478 133.824 17.9299C133.824 16.5707 133.364 16.5502 101.748 16.5502H69.6705V8.27417V0H34.8362H0V2.75744Z" fill="url(#paint0_radial_2_12)"/>
<defs>
<radialGradient id="paint0_radial_2_12" cx="0" cy="0" r="1" gradientUnits="userSpaceOnUse" gradientTransform="translate(369.783 662) scale(4197.22 4401.9)">
<stop stop-color="#1F2A3D"/>
<stop offset="1" stop-color="#4C83C2"/>
</radialGradient>
</defs>
</svg>
