<svg width="745" height="1600" viewBox="0 0 745 1600" fill="none" xmlns="http://www.w3.org/2000/svg">
<g clip-path="url(#clip0_2_17)">
<rect width="745" height="1600" fill="none"/>
<path fill-rule="evenodd" clip-rule="evenodd" d="M0 140.757V143.517H32.089H64.1799L63.9936 158.86L63.8074 174.202L31.9046 174.383L0 174.562V176.969V179.375H32.8601H65.7183L67.3499 177.615C68.8678 175.979 68.9814 175.306 68.9814 167.961V160.067H100.368H131.755V195.236V230.405H100.368H68.9814V220.405V210.406H35.1808H1.38011V212.819V215.232H32.767H64.152V231.094V246.955H32.767H1.38011V249.368V251.781H34.4916C67.1413 251.781 67.6013 251.762 67.6013 250.401C67.6013 249.644 67.9123 249.024 68.2923 249.024C68.7058 249.024 68.9814 246.264 68.9814 242.127V235.231H101.402H133.824V233.162C133.824 231.554 134.13 231.094 135.204 231.094C136.545 231.094 136.583 230.634 136.583 214.199V197.304H167.28H197.976V276.605V355.908H167.28H136.583V338.669C136.583 321.888 136.547 321.43 135.204 321.43C134.284 321.43 133.824 320.97 133.824 320.05C133.824 318.691 133.364 318.671 101.402 318.671H68.9814V310.397V302.121H34.4916H0V304.88V307.637H32.089H64.1799L63.9936 322.981L63.8074 338.325L31.9046 338.503L0 338.682V341.09V343.495H32.8601H65.7183L67.3499 341.736C68.8678 340.099 68.9814 339.427 68.9814 332.082V324.188H100.368H131.755V359.356V394.525H100.368H68.9814V384.525V374.527H35.1808H1.38011V376.94V379.355H32.767H64.152V395.214V411.076H32.767H1.38011V413.489V415.902H34.4916C67.1413 415.902 67.6013 415.883 67.6013 414.524C67.6013 413.764 67.9123 413.144 68.2923 413.144C68.7039 413.144 68.9814 410.5 68.9814 406.592V400.042L94.3319 399.916C108.275 399.847 120.614 399.867 121.752 399.96C128.494 400.521 133.824 399.312 133.824 397.225C133.824 395.674 134.139 395.214 135.204 395.214C136.545 395.214 136.583 394.754 136.583 378.268V361.321L170.039 361.546L203.497 361.769L203.495 320.568V279.365H234.193H264.888V436.868V594.372L234.71 594.027C218.11 593.837 204.491 593.634 204.447 593.577C204.4 593.517 204.191 576.19 203.985 555.073L203.607 516.676L202.042 514.561L200.476 512.444H168.875H137.274V495.204C137.274 478.781 137.212 477.965 135.974 477.965C135.255 477.965 134.513 477.349 134.314 476.586C133.96 475.23 133.374 475.206 101.812 475.206H69.6705V466.932V458.656H35.1808H0.689125V461.071V463.484H32.4205H64.152V479.343V495.204H32.4205H0.689125V497.617V500.03H33.8007C66.4521 500.03 66.9122 500.012 66.9122 498.653C66.9122 497.733 67.3722 497.273 68.2923 497.273C69.5979 497.273 69.6705 496.813 69.6705 488.652V480.034H100.713H131.755V515.547V551.061H100.731H69.7078L69.5178 540.889L69.326 530.718L45.527 530.604C32.4392 530.541 17.1499 530.666 11.555 530.882L1.38011 531.273V533.581V535.89H32.767H64.152V551.405V566.92H32.767H1.38011V569.335V571.748H34.4116H67.443L68.5568 570.048C69.3744 568.801 69.6705 566.693 69.6705 562.118V555.887H102.093H134.513V553.865C134.513 552.448 134.927 551.712 135.894 551.405C137.223 550.983 137.274 550.363 137.274 534.12V517.271H167.97H198.667V596.917V676.564H167.97H137.274V659.325C137.274 642.289 137.257 642.086 135.828 642.086C134.964 642.086 134.24 641.531 134.024 640.706C133.67 639.353 133.083 639.327 101.666 639.327H69.6705V631.052V622.776H35.1808H0.689125V625.191V627.604H32.4205H64.152V643.464V659.325H32.4205H0.689125V661.738V664.153H33.8007C66.4521 664.153 66.9122 664.132 66.9122 662.773C66.9122 661.853 67.3722 661.394 68.2923 661.394C69.5979 661.394 69.6705 660.934 69.6705 652.773V644.154H100.713H131.755V679.668V715.181H100.713H69.6705V705.256C69.6705 696.451 69.5346 695.28 68.4674 694.87C67.1562 694.366 26.1961 694.485 10.8789 695.034L1.38011 695.377V697.693V700.011H32.767H64.152V715.526V731.043H32.767H1.38011V733.8V736.557H34.4916C63.7645 736.557 67.6013 736.436 67.6013 735.502C67.6013 734.921 68.0669 734.267 68.6369 734.049C69.4601 733.733 69.6705 732.258 69.6705 726.831V720.009H102.093H134.513V717.985C134.513 716.57 134.927 715.833 135.894 715.526C137.223 715.105 137.274 714.483 137.274 698.244V681.398L170.385 681.567L203.495 681.736L203.592 678.288C203.83 669.623 204.041 647.889 204.11 624.651L204.186 599.285L229.881 599.332C268.12 599.401 267.649 599.41 267.649 598.592C267.649 598.187 268.114 597.388 268.682 596.82C269.591 595.911 269.718 586.174 269.718 517.566V439.348H300.066H330.413L330.415 542.269C330.415 598.874 330.618 760.35 330.866 901.104L331.313 1157.02L301.032 1156.7C284.378 1156.52 270.713 1156.33 270.664 1156.27C270.616 1156.22 270.424 1121.12 270.238 1078.28L269.899 1000.38L268.429 999.408C267.621 998.871 266.958 998.004 266.958 997.481C266.958 996.688 261.724 996.531 235.226 996.531H203.495V957.16C203.495 918.37 203.474 917.785 202.117 917.429C201.353 917.23 200.737 916.489 200.737 915.77C200.737 914.515 199.613 914.471 168.661 914.471H136.583V897.232C136.583 880.451 136.547 879.993 135.204 879.993C134.284 879.993 133.824 879.533 133.824 878.613C133.824 877.254 133.364 877.233 101.424 877.233H69.0261L68.8306 869.13L68.6369 861.028L34.3184 860.849L0 860.67V863.435V866.2H32.076H64.152V881.715V897.232H32.076H0V899.989V902.748H33.4561C66.4521 902.748 66.9122 902.73 66.9122 901.369C66.9122 900.449 67.3722 899.989 68.2923 899.989C69.5979 899.989 69.6705 899.529 69.6705 891.37V882.75H100.368H131.064V917.919V953.088H100.024H68.9814V943.088V933.09H34.7934H0.607175L0.821363 935.676L1.03555 938.262L32.6068 938.441L64.1799 938.619L63.9936 953.956L63.8074 969.292L32.2492 969.472L0.689125 969.651V972.059V974.464H34.1452C63.4237 974.464 67.6013 974.336 67.6013 973.431C67.6013 972.861 67.9123 972.396 68.2923 972.396C68.7058 972.396 68.9814 969.638 68.9814 965.499V958.605H101.402H133.824V956.471C133.824 954.918 134.199 954.24 135.204 953.976C136.762 953.57 136.67 954.942 136.585 933.252L136.531 919.967L167.254 920.002L197.976 920.036V999.315V1078.59H167.28H136.583V1061.35C136.583 1044.57 136.547 1044.11 135.204 1044.11C134.284 1044.11 133.824 1043.65 133.824 1042.73C133.824 1041.37 133.364 1041.35 101.769 1041.35H69.7152L69.5215 1033.25L69.326 1025.15L34.663 1024.97L0 1024.79V1027.55V1030.31L31.9046 1030.49L63.8074 1030.66L63.9936 1046.01L64.1799 1061.35H32.089H0V1064.11V1066.87H33.4561C66.4521 1066.87 66.9122 1066.85 66.9122 1065.49C66.9122 1064.57 67.3722 1064.11 68.2923 1064.11C69.5979 1064.11 69.6705 1063.65 69.6705 1055.49V1046.87H100.368H131.064V1082.04V1117.21H100.024H68.9814V1107.21V1097.21H34.7934H0.607175L0.821363 1099.8L1.03555 1102.38L32.5155 1102.56L63.9974 1102.74L63.9024 1118.08L63.8074 1133.41L35.1808 1133.57C19.4352 1133.65 5.23363 1133.73 3.6207 1133.74C0.733825 1133.76 0.689125 1133.79 0.689125 1136.17V1138.58H34.1452C63.4237 1138.58 67.6013 1138.46 67.6013 1137.55C67.6013 1136.98 67.9123 1136.52 68.2923 1136.52C68.7058 1136.52 68.9814 1133.76 68.9814 1129.62V1122.73H101.402H133.824V1120.59C133.824 1119.04 134.199 1118.36 135.204 1118.1C136.536 1117.75 136.583 1117.16 136.583 1100.89V1084.04L170.039 1084.24L203.497 1084.45L203.495 1043.25V1002.05H234.142H264.79L264.667 1159.45L264.544 1316.84L234.364 1316.99L204.186 1317.13V1277.79C204.186 1239.03 204.165 1238.44 202.806 1238.09C202.042 1237.89 201.426 1237.14 201.426 1236.43C201.426 1235.17 200.304 1235.13 169.35 1235.13H137.274V1217.89C137.274 1201.11 137.236 1200.65 135.894 1200.65C134.974 1200.65 134.513 1200.19 134.513 1199.27C134.513 1197.91 134.053 1197.89 102.093 1197.89H69.6705V1189.61V1181.34H35.1808H0.689125V1184.1V1186.86H32.4205H64.152V1202.37V1217.89H32.4205H0.689125V1220.65V1223.4H33.8007C66.4521 1223.4 66.9122 1223.39 66.9122 1222.02C66.9122 1221.1 67.3722 1220.65 68.2923 1220.65C69.5979 1220.65 69.6705 1220.19 69.6705 1212.03V1203.41H100.713H131.755V1238.57V1273.74H100.713H69.6705V1263.75C69.6705 1256.23 69.4582 1253.74 68.8082 1253.71C67.9794 1253.68 24.0765 1253.69 8.79473 1253.73L1.38011 1253.75V1256.16V1258.57H32.767H64.152V1274.09V1289.61H32.767H1.38011V1292.36V1295.12H34.8362C67.8323 1295.12 68.2923 1295.1 68.2923 1293.74C68.2923 1292.98 68.6015 1292.36 68.9814 1292.36C69.393 1292.36 69.6705 1289.72 69.6705 1285.81V1279.26H102.093H134.513V1276.85C134.513 1274.89 134.776 1274.43 135.894 1274.43C137.236 1274.43 137.274 1273.97 137.274 1257.54V1240.64H167.932H198.591L198.457 1319.77L198.321 1398.9L167.798 1399.05L137.274 1399.19V1381.98C137.274 1365.23 137.236 1364.77 135.894 1364.77C134.974 1364.77 134.513 1364.31 134.513 1363.39C134.513 1362.03 134.053 1362.01 102.093 1362.01H69.6705V1353.74V1345.46H35.1808H0.689125V1348.22V1350.98H32.4205H64.152V1366.49V1382.01H32.4205H0.689125V1384.77V1387.52H33.8007C66.4521 1387.52 66.9122 1387.51 66.9122 1386.15C66.9122 1385.23 67.3722 1384.77 68.2923 1384.77C69.5979 1384.77 69.6705 1384.31 69.6705 1376.15V1367.53H100.713H131.755V1402.7V1437.86H100.713H69.6705V1427.87C69.6705 1418.81 69.5569 1417.86 68.4636 1417.84C67.4318 1417.81 27.4905 1417.82 7.76104 1417.86L1.38011 1417.87V1420.28V1422.69H32.767H64.152V1438.21V1453.73H32.767H1.38011V1456.48V1459.24H34.8362C67.8323 1459.24 68.2923 1459.22 68.2923 1457.86C68.2923 1457.1 68.6015 1456.48 68.9814 1456.48C69.393 1456.48 69.6705 1453.84 69.6705 1449.93V1443.38H102.093H134.513V1440.97C134.513 1439.01 134.776 1438.56 135.894 1438.56C137.236 1438.56 137.274 1438.1 137.274 1421.61V1404.67L170.557 1404.82L203.839 1404.96L204.018 1363.83L204.195 1322.7H235.923C267.189 1322.7 267.649 1322.69 267.649 1321.33C267.649 1320.57 268.081 1319.95 268.61 1319.95C270.368 1319.95 270.407 1318.18 270.407 1239.9V1162.03H302.138C329.884 1162.03 333.87 1161.9 333.87 1161C333.87 1160.43 334.33 1159.96 334.892 1159.96C336.69 1159.96 336.693 1159.58 336.489 980.405L336.286 803.952L369.604 804.309C387.929 804.507 403.019 804.78 403.14 804.92C403.259 805.058 403.54 885.694 403.762 984.109C404.043 1107.61 404.392 1163.12 404.891 1163.28C405.287 1163.42 405.612 1164.12 405.612 1164.85C405.612 1166.13 406.535 1166.17 437.688 1166.17H469.763V1244.5C469.763 1322.25 469.775 1322.84 471.144 1323.19C471.907 1323.39 472.524 1324.14 472.524 1324.85C472.524 1326.11 473.637 1326.15 504.255 1326.15H535.987V1365.8C535.987 1404.99 536.001 1405.45 537.367 1405.45C538.285 1405.45 538.745 1405.91 538.745 1406.83C538.745 1408.19 539.205 1408.21 570.821 1408.21H602.899V1425.45C602.899 1442.23 602.934 1442.69 604.277 1442.69C605.197 1442.69 605.657 1443.15 605.657 1444.07C605.657 1445.43 606.117 1445.45 638.079 1445.45H670.5V1453.73V1462H704.992H739.481V1459.24V1456.48H707.75H676.019V1440.97V1425.45H707.75H739.481V1422.69V1419.94H706.37C673.718 1419.94 673.258 1419.95 673.258 1421.31C673.258 1422.23 672.8 1422.69 671.88 1422.69C670.575 1422.69 670.5 1423.15 670.5 1431.31V1439.93H639.458H608.417V1404.76V1369.59H639.458H670.5V1379.6C670.5 1388.65 670.614 1389.6 671.707 1389.62C672.703 1389.64 713.537 1389.63 733.445 1389.6L738.792 1389.59V1387.18V1384.77H707.405H676.019V1369.25V1353.74H707.405H738.792V1350.98V1348.22H705.336C672.34 1348.22 671.88 1348.24 671.88 1349.6C671.88 1350.36 671.569 1350.98 671.189 1350.98C670.778 1350.98 670.5 1353.62 670.5 1357.53V1364.08H638.079H605.657V1366.49C605.657 1368.45 605.394 1368.91 604.277 1368.91C602.936 1368.91 602.899 1369.37 602.899 1385.8V1402.7H572.201H541.505V1323.39V1244.09H572.201H602.899V1261.33C602.899 1278.11 602.934 1278.57 604.277 1278.57C605.197 1278.57 605.657 1279.03 605.657 1279.95C605.657 1281.31 606.117 1281.33 638.079 1281.33H670.5V1289.61V1297.88H704.992H739.481V1295.12V1292.36H707.75H676.019V1276.85V1261.33H707.75H739.481V1258.57V1255.81H706.37C673.718 1255.81 673.258 1255.83 673.258 1257.19C673.258 1258.11 672.8 1258.57 671.88 1258.57C670.575 1258.57 670.5 1259.03 670.5 1267.19V1275.81H639.458H608.417V1240.64V1205.47H639.458H670.5V1215.47V1225.47H704.645H738.792V1223.06V1220.65H707.405H676.019V1204.79V1188.92H707.405H738.792V1186.51V1184.1H705.336C672.34 1184.1 671.88 1184.12 671.88 1185.48C671.88 1186.24 671.569 1186.86 671.189 1186.86C670.778 1186.86 670.5 1189.5 670.5 1193.41V1199.96H638.079H605.657V1202.37C605.657 1204.33 605.394 1204.79 604.277 1204.79C602.936 1204.79 602.899 1205.25 602.899 1221.73V1238.68L569.443 1238.46L535.985 1238.23L535.987 1279.43V1320.64H505.633H475.282V1163.11V1005.59L501.324 1005.84C515.644 1005.98 529.31 1006.12 531.688 1006.14L536.013 1006.18L535.987 1038.42C535.972 1056.15 535.966 1073.87 535.974 1077.79C535.985 1084.34 536.1 1084.96 537.367 1085.29C538.128 1085.49 538.745 1086.23 538.745 1086.95C538.745 1088.2 539.861 1088.25 570.476 1088.25H602.208V1105.14C602.208 1121.83 602.226 1122.04 603.653 1122.04C604.517 1122.04 605.242 1122.59 605.458 1123.41C605.812 1124.77 606.398 1124.79 637.815 1124.79H669.811V1133.07C669.811 1141.17 669.843 1141.34 671.362 1141.4C673.044 1141.46 724.488 1141.44 733.79 1141.38L739.481 1141.34V1138.93C739.481 1136.61 739.381 1136.51 736.894 1136.46C734.136 1136.41 694.228 1135.99 682.383 1135.89L675.298 1135.83L675.356 1120.66L675.415 1105.49H707.448H739.481V1102.73V1099.97H706.025C673.029 1099.97 672.569 1099.99 672.569 1101.35C672.569 1102.27 672.109 1102.73 671.189 1102.73C669.887 1102.73 669.811 1103.19 669.811 1111V1119.28H638.815H607.819L607.946 1084.28L608.071 1049.28H639.113H670.155L670.299 1057.9C670.377 1062.64 670.455 1067.22 670.472 1068.08L670.5 1069.63H704.301H738.101V1066.87V1064.11H706.714H675.329V1048.59V1033.08H706.714H738.101V1030.32V1027.56H704.992C672.34 1027.56 671.88 1027.58 671.88 1028.94C671.88 1029.7 671.58 1030.32 671.215 1030.32C670.846 1030.32 670.461 1033.33 670.353 1037.04L670.155 1043.77L640.838 1043.92C624.714 1044.01 610.047 1044.09 608.244 1044.09C605.096 1044.11 604.968 1044.19 604.968 1046.1C604.968 1047.51 604.566 1048.19 603.588 1048.45C602.256 1048.8 602.208 1049.39 602.208 1065.77V1082.73H571.856H541.505V1003.08V923.436H571.856H602.208V940.675V957.914H603.932C605.197 957.914 605.657 958.283 605.657 959.294C605.657 960.653 606.117 960.673 637.733 960.673H669.811V968.947C669.811 977.065 669.839 977.223 671.362 977.236C674.251 977.259 730.135 977.268 734.866 977.246L739.565 977.223L739.351 974.637L739.137 972.051L707.232 971.872L675.329 971.692V956.529V941.364H707.405H739.481V938.606V935.849H706.025C673.029 935.849 672.569 935.867 672.569 937.227C672.569 938.146 672.109 938.606 671.189 938.606C669.887 938.606 669.811 939.066 669.811 946.88V955.156H638.815H607.819L607.946 920.161L608.071 885.163H639.113H670.155L670.299 893.784C670.377 898.524 670.455 903.102 670.472 903.955L670.5 905.506H704.301H738.101V902.748V899.989H706.714H675.329V884.474V868.959H706.714H738.101V866.2V863.442H704.992C672.34 863.442 671.88 863.461 671.88 864.82C671.88 865.58 671.58 866.2 671.215 866.2C670.846 866.2 670.461 869.207 670.353 872.923L670.155 879.646L640.838 879.795C624.714 879.877 610.047 879.953 608.244 879.967C605.098 879.991 604.968 880.071 604.968 881.979C604.968 883.389 604.566 884.074 603.588 884.329C602.256 884.677 602.208 885.269 602.208 901.352V918.014L569.096 917.794L535.985 917.575L535.977 920.676C535.974 922.384 535.895 941.003 535.806 962.053L535.642 1000.32L509.774 1000.45C467.543 1000.65 471.833 1000.46 471.833 1002.09C471.833 1002.87 471.555 1003.34 471.216 1003.13C469.862 1002.29 469.763 1007.67 469.763 1082.79V1160.65H439.766H409.769L409.588 1114.28C409.487 1088.77 409.329 983.187 409.236 879.646C409.143 776.106 408.863 635.612 408.614 567.438L408.161 443.485H438.973H469.784L469.763 508.133C469.752 543.691 469.749 578.94 469.754 586.466C469.763 599.566 469.823 600.166 471.144 600.51C471.907 600.709 472.524 601.451 472.524 602.169C472.524 603.422 473.637 603.469 504.255 603.469H535.987V642.028C535.987 680.694 536.074 682.772 537.704 682.772C538.188 682.772 538.747 683.392 538.946 684.149C539.3 685.505 539.887 685.529 571.102 685.529H602.899V702.768C602.899 719.194 602.96 720.009 604.197 720.009C604.916 720.009 605.657 720.624 605.856 721.387C606.212 722.742 606.799 722.767 638.359 722.767H670.5V731.043V739.317H704.992H739.481V736.557V733.8H707.75H676.019V718.285V702.768H707.75H739.481V700.011V697.251H706.37C673.718 697.251 673.258 697.272 673.258 698.631C673.258 699.551 672.8 700.011 671.88 700.011C670.575 700.011 670.5 700.471 670.5 708.629V717.25H639.458H608.417V682.081V646.912H639.458H670.5V656.912V666.91H704.645H738.792V664.153V661.394H707.405H676.019V645.879V630.362H707.405H738.792V627.949V625.536H705.336C676.058 625.536 671.88 625.664 671.88 626.569C671.88 627.139 671.569 627.604 671.189 627.604C670.776 627.604 670.5 630.362 670.5 634.501V641.395H638.079H605.657V643.81C605.657 645.763 605.394 646.223 604.277 646.223C602.936 646.223 602.899 646.683 602.899 663.118V680.012H572.201H541.505V600.711V521.408H572.201H602.899V538.648C602.899 555.071 602.96 555.887 604.197 555.887C604.916 555.887 605.657 556.503 605.856 557.266C606.212 558.622 606.799 558.646 638.359 558.646H670.5V566.92V575.196H704.992H739.481V572.437V569.679H707.75H676.019V554.164V538.648H707.75H739.481V535.89V533.131H706.37C673.718 533.131 673.258 533.151 673.258 534.51C673.258 535.43 672.8 535.89 671.88 535.89C670.575 535.89 670.5 536.35 670.5 544.509V553.129H639.458H608.417V517.96V482.791H639.458H670.5V492.791V502.79H704.645H738.792V500.03V497.273H707.405H676.019V481.758V466.241H707.405H738.792V463.484V460.724H706.428C673.601 460.724 671.88 460.814 671.88 462.523C671.88 463.052 671.569 463.484 671.189 463.484C670.776 463.484 670.5 466.241 670.5 470.38V477.275H638.079H605.657V479.689C605.657 481.643 605.394 482.102 604.277 482.102C602.936 482.102 602.899 482.562 602.899 499.038V515.976L569.443 515.761L535.987 515.547V556.749V597.952H505.633H475.282V440.382V282.813H505.633H535.987V322.463C535.987 361.654 536.001 362.114 537.367 362.114C538.285 362.114 538.745 362.574 538.745 363.494C538.745 364.853 539.205 364.873 570.476 364.873H602.208V382.112V399.351H603.932C605.197 399.351 605.657 399.72 605.657 400.731C605.657 402.09 606.117 402.111 637.733 402.111H669.811V410.385V418.661H704.645H739.481V415.902V413.144H707.435H675.389L675.532 397.8L675.674 382.457L704.992 382.31C721.115 382.228 735.49 382.15 736.937 382.136C739.548 382.112 739.563 382.096 739.351 379.526L739.137 376.94L706.135 376.761C674.11 376.588 673.124 376.622 672.787 377.904C672.597 378.632 671.85 379.381 671.126 379.571C669.923 379.885 669.811 380.628 669.811 388.255V396.594H638.769H607.726V361.425V326.256H639.113H670.5V336.254C670.5 343.773 670.714 346.264 671.362 346.295C671.837 346.318 684.176 346.318 698.782 346.295C713.39 346.273 728.211 346.254 731.72 346.254H738.101V343.841V341.427H706.714H675.329V325.912V310.397H706.714H738.101V307.637V304.88H704.992C672.34 304.88 671.88 304.898 671.88 306.258C671.88 307.017 671.569 307.637 671.189 307.637C670.778 307.637 670.5 310.279 670.5 314.182V320.726L637.906 320.905L605.312 321.084L605.102 323.255C604.961 324.716 604.452 325.541 603.549 325.776C602.267 326.111 602.208 326.867 602.208 342.741V359.356H571.856H541.505V280.054V200.753H571.856H602.208V217.992V235.231H603.932C605.197 235.231 605.657 235.599 605.657 236.61C605.657 237.97 606.117 237.99 637.733 237.99H669.811V246.264V254.54H704.645H739.481V251.781V249.024H707.405H675.329V233.507V217.992H707.405H739.481V215.232V212.475H706.307C674.246 212.475 673.119 212.52 672.785 213.789C672.597 214.514 671.85 215.26 671.126 215.45C669.923 215.765 669.811 216.508 669.811 224.134V232.473H638.769H607.726V197.304V162.135H639.113H670.5V172.134C670.5 179.658 670.714 182.141 671.362 182.166C671.837 182.182 684.176 182.184 698.782 182.169C713.39 182.154 728.211 182.141 731.72 182.138L738.101 182.134V179.719C738.101 177.343 738.057 177.306 735.17 177.282C733.557 177.267 719.512 177.191 703.956 177.109L675.674 176.962L675.532 161.618L675.389 146.274H706.746H738.101V143.517V140.757H704.992C672.34 140.757 671.88 140.778 671.88 142.137C671.88 142.897 671.569 143.517 671.189 143.517C670.778 143.517 670.5 146.159 670.5 150.061V156.606L637.906 156.784L605.312 156.963L605.102 159.134C604.961 160.596 604.452 161.421 603.549 161.655C602.267 161.99 602.208 162.746 602.208 178.673V195.34L569.096 195.115L535.985 194.891L535.987 236.093V277.296H503.911C474.641 277.296 471.833 277.395 471.833 278.426C471.833 279.048 471.365 279.901 470.792 280.324C469.873 280.998 469.73 290.469 469.585 359.356L469.419 437.624L443.551 437.754C429.323 437.825 414.967 437.903 411.648 437.926C406.602 437.961 405.612 438.149 405.612 439.067C405.612 439.672 404.965 440.335 404.177 440.542L402.743 440.916L403.241 620.034L403.74 799.152L370.703 798.833C352.532 798.658 337.28 798.396 336.809 798.249C336.131 798.037 335.95 760.749 335.937 618.837C335.921 446.503 335.842 436.589 334.479 436.589C334.144 436.589 333.87 435.969 333.87 435.211C333.87 433.852 333.41 433.831 302.138 433.831H270.407V356.31C270.407 278.372 270.368 276.605 268.61 276.605C268.081 276.605 267.649 275.985 267.649 275.228C267.649 273.868 267.189 273.848 235.571 273.848H203.495V234.477C203.495 195.686 203.474 195.102 202.117 194.746C201.353 194.545 200.737 193.804 200.737 193.085C200.737 191.832 199.613 191.788 168.661 191.788H136.583V174.549C136.583 157.768 136.547 157.308 135.204 157.308C134.284 157.308 133.824 156.848 133.824 155.93C133.824 154.571 133.364 154.55 101.748 154.55H69.6705V146.274V138H34.8362H0V140.757Z" fill="#0099FF66"/>
<ellipse cx="373" cy="800" rx="667" ry="892" fill="url(#paint0_radial_2_17)"/>
</g>
<defs>
<!-- <radialGradient id="paint0_radial_2_17" cx="0" cy="0" r="1" gradientUnits="userSpaceOnUse" gradientTransform="translate(373 800) rotate(90) scale(892 667)">
<stop stop-color="#161F2C"/>
<stop offset="1" stop-color="#1E293B" stop-opacity="0"/>
</radialGradient> -->
<radialGradient id="paint0_radial_2_17" cx="0" cy="0" r="1" gradientUnits="userSpaceOnUse" gradientTransform="translate(373 800) rotate(90) scale(1200 900)">
    <stop stop-color="#0E1520"/>
    <stop offset="1" stop-color="#161F2C" stop-opacity="0.5"/>
</radialGradient>
<!-- <radialGradient id="paint0_radial_2_17" cx="0" cy="0" r="1" gradientUnits="userSpaceOnUse" gradientTransform="translate(373 800) rotate(90) scale(892 667)">
    <stop stop-color="#080C12"/>
    <stop offset="1" stop-color="#0E1520" stop-opacity="0.8"/>
</radialGradient> -->
<clipPath id="clip0_2_17">
<rect width="745" height="1600" fill="white"/>
</clipPath>
</defs>
</svg>
